<svg data-v-423bf9ae="" xmlns="http://www.w3.org/2000/svg" viewBox="0 0 184.03203864276205 60" class="font"><!----><!----><!----><g data-v-423bf9ae="" id="9f5a4c41-00ff-45d3-a862-d86c6d951053" fill="black" transform="matrix(4.731861084854148,0,0,4.731861084854148,-3.643534829484423,-3.312303477850108)"><path d="M4.28 9.97C2.70 9.97 1.48 8.75 1.48 7.06C1.48 5.36 2.67 4.14 4.28 4.14C5.85 4.14 7.11 5.10 7.11 7.04C7.11 8.99 5.85 9.97 4.28 9.97ZM1.43 13.38L1.43 8.90C2.02 10.05 3.11 10.63 4.28 10.63C6.23 10.63 7.80 9.37 7.80 7.04C7.80 4.82 6.31 3.56 4.44 3.49C3.09 3.49 1.99 4.17 1.44 5.22L1.44 3.58L0.77 3.58L0.77 13.38ZM12.60 10.60C13.71 10.60 14.91 10.15 15.58 9.27L15.09 8.88C14.57 9.56 13.51 9.93 12.60 9.93C11.17 9.93 9.93 8.99 9.79 7.36L16.02 7.36C16.28 4.66 14.55 3.47 12.60 3.47C10.65 3.47 9.09 4.97 9.09 7.04C9.09 9.24 10.65 10.60 12.60 10.60ZM9.79 6.76C9.94 5.07 11.17 4.10 12.60 4.10C14.27 4.10 15.39 5.05 15.40 6.76ZM17.79 3.58L17.79 10.50L18.48 10.50L18.48 6.47C18.48 5.21 19.47 4.17 20.76 4.16C21.17 4.16 21.57 4.26 21.94 4.48L22.25 3.92C21.78 3.64 21.28 3.50 20.76 3.51C19.88 3.51 18.90 3.88 18.47 4.82L18.44 3.58ZM23.28 0.70L23.28 10.50L23.97 10.50L23.97 0.70ZM29.01 10.60C30.11 10.60 31.32 10.15 31.99 9.27L31.50 8.88C30.98 9.56 29.92 9.93 29.01 9.93C27.58 9.93 26.33 8.99 26.19 7.36L32.42 7.36C32.69 4.66 30.95 3.47 29.01 3.47C27.06 3.47 25.49 4.97 25.49 7.04C25.49 9.24 27.06 10.60 29.01 10.60ZM26.19 6.76C26.35 5.07 27.58 4.10 29.01 4.10C30.67 4.10 31.79 5.05 31.81 6.76ZM39.37 4.40C38.68 3.75 37.80 3.47 36.79 3.47C35.39 3.46 34.03 4.05 34.05 5.40C34.06 6.79 35.39 7.04 36.74 7.27C37.87 7.45 39.02 7.64 38.99 8.64C38.95 9.73 37.67 9.95 36.83 9.95C35.91 9.95 34.87 9.60 34.30 8.78L33.80 9.23C34.40 10.15 35.60 10.61 36.82 10.61C38.04 10.61 39.62 10.21 39.66 8.68C39.73 7.07 38.04 6.86 36.81 6.65C35.94 6.50 34.73 6.31 34.71 5.39C34.68 4.51 35.71 4.10 36.79 4.12C37.56 4.12 38.25 4.23 38.95 4.84Z"></path></g><!----><!----></svg>